<svg height="16" viewBox="0 0 18 16" width="18" xmlns="http://www.w3.org/2000/svg"><path d="m17 2h-1v-1c0-.55-.45-1-1-1h-14c-.55 0-1 .45-1 1v12c0 .55.45 1 1 1h1v1c0 .55.45 1 1 1h14c.55 0 1-.45 1-1v-12c0-.55-.45-1-1-1zm-15 1v10h-.998c-.001-.001-.001-.001-.002-.002v-11.996l.002-.002h13.996c.001.001.001.001.002.002v.998h-12c-.55 0-1 .45-1 1zm15 11.998c-.001.001-.001.001-.002.002h-13.996c-.001-.001-.001-.001-.002-.002v-11.996l.002-.002h13.996c.001.001.001.001.002.002z"/><path d="m15 5.5c0 .828-.672 1.5-1.5 1.5s-1.5-.672-1.5-1.5.672-1.5 1.5-1.5 1.5.672 1.5 1.5z"/><path d="m16 14h-12v-2l3.5-6 4 5h1l3.5-3z"/></svg>